<svg xmlns="http://www.w3.org/2000/svg" viewBox="0 0 512 512" width="512" height="512">
  <rect width="512" height="512" rx="96" fill="#ffffff"/>
  <!-- Row 1 -->
  <rect x="58" y="58" width="88" height="88" rx="14" fill="#16a34a"/>
  <rect x="162" y="58" width="88" height="88" rx="14" fill="#86efac"/>
  <rect x="266" y="58" width="88" height="88" rx="14" fill="#dc2626"/>
  <rect x="370" y="58" width="88" height="88" rx="14" fill="#22c55e"/>
  <!-- Row 2 -->
  <rect x="58" y="162" width="88" height="88" rx="14" fill="#fca5a5"/>
  <rect x="162" y="162" width="88" height="88" rx="14" fill="#15803d"/>
  <rect x="266" y="162" width="88" height="88" rx="14" fill="#4ade80"/>
  <rect x="370" y="162" width="88" height="88" rx="14" fill="#f87171"/>
  <!-- Row 3 -->
  <rect x="58" y="266" width="88" height="88" rx="14" fill="#22c55e"/>
  <rect x="162" y="266" width="88" height="88" rx="14" fill="#dc2626"/>
  <rect x="266" y="266" width="88" height="88" rx="14" fill="#86efac"/>
  <rect x="370" y="266" width="88" height="88" rx="14" fill="#0f6b2e"/>
  <!-- Row 4 -->
  <rect x="58" y="370" width="88" height="88" rx="14" fill="#fca5a5"/>
  <rect x="162" y="370" width="88" height="88" rx="14" fill="#22c55e"/>
  <rect x="266" y="370" width="88" height="88" rx="14" fill="#b91c1c"/>
  <rect x="370" y="370" width="88" height="88" rx="14" fill="#16a34a"/>
</svg>
