<?xml version="1.0" encoding="UTF-8" standalone="no"?>
<!DOCTYPE svg PUBLIC "-//W3C//DTD SVG 1.1//EN"
 "http://www.w3.org/Graphics/SVG/1.1/DTD/svg11.dtd">
<!-- Generated by graphviz version 2.43.0 (0)
 -->
<!-- Title: InvestmentSystem Pages: 1 -->
<svg width="1417pt" height="563pt"
 viewBox="0.00 0.00 1417.00 562.78" xmlns="http://www.w3.org/2000/svg" xmlns:xlink="http://www.w3.org/1999/xlink">
<g id="graph0" class="graph" transform="scale(1 1) rotate(0) translate(4 558.78)">
<title>InvestmentSystem</title>
<polygon fill="#faf7f3" stroke="transparent" points="-4,4 -4,-558.78 1413,-558.78 1413,4 -4,4"/>
<text text-anchor="middle" x="704.5" y="-540.38" font-family="Noto Sans JP" font-size="13.00" fill="#3a3a3a">Toshio 投資システム アーキテクチャ（2026&#45;06 全体図）</text>
<g id="clust1" class="cluster">
<title>cluster_src</title>
<path fill="#f0e9e1" stroke="#d8cfc6" d="M20,-198.78C20,-198.78 156,-198.78 156,-198.78 162,-198.78 168,-204.78 168,-210.78 168,-210.78 168,-476.78 168,-476.78 168,-482.78 162,-488.78 156,-488.78 156,-488.78 20,-488.78 20,-488.78 14,-488.78 8,-482.78 8,-476.78 8,-476.78 8,-210.78 8,-210.78 8,-204.78 14,-198.78 20,-198.78"/>
<text text-anchor="middle" x="88" y="-474.38" font-family="Noto Sans JP" font-size="13.00" fill="#6b5d50">外部データソース</text>
</g>
<g id="clust2" class="cluster">
<title>cluster_brain</title>
<path fill="#f5e7df" stroke="#cc785c" d="M249,-222.78C249,-222.78 638.5,-222.78 638.5,-222.78 644.5,-222.78 650.5,-228.78 650.5,-234.78 650.5,-234.78 650.5,-411.78 650.5,-411.78 650.5,-417.78 644.5,-423.78 638.5,-423.78 638.5,-423.78 249,-423.78 249,-423.78 243,-423.78 237,-417.78 237,-411.78 237,-411.78 237,-234.78 237,-234.78 237,-228.78 243,-222.78 249,-222.78"/>
<text text-anchor="middle" x="443.75" y="-409.38" font-family="Noto Sans JP" font-size="13.00" fill="#a85638">MulmoClaude（中枢＝唯一の全体把握）</text>
</g>
<g id="clust3" class="cluster">
<title>cluster_repo</title>
<path fill="#e9eef3" stroke="#bcc9d6" d="M788,-178.78C788,-178.78 949,-178.78 949,-178.78 955,-178.78 961,-184.78 961,-190.78 961,-190.78 961,-402.78 961,-402.78 961,-408.78 955,-414.78 949,-414.78 949,-414.78 788,-414.78 788,-414.78 782,-414.78 776,-408.78 776,-402.78 776,-402.78 776,-190.78 776,-190.78 776,-184.78 782,-178.78 788,-178.78"/>
<text text-anchor="middle" x="868.5" y="-400.38" font-family="Noto Sans JP" font-size="13.00" fill="#4f6075">github/portfolio リポジトリ</text>
</g>
<g id="clust4" class="cluster">
<title>cluster_worker</title>
<path fill="#efe9f3" stroke="#cabcd6" d="M278.5,-32.78C278.5,-32.78 928.5,-32.78 928.5,-32.78 934.5,-32.78 940.5,-38.78 940.5,-44.78 940.5,-44.78 940.5,-158.78 940.5,-158.78 940.5,-164.78 934.5,-170.78 928.5,-170.78 928.5,-170.78 278.5,-170.78 278.5,-170.78 272.5,-170.78 266.5,-164.78 266.5,-158.78 266.5,-158.78 266.5,-44.78 266.5,-44.78 266.5,-38.78 272.5,-32.78 278.5,-32.78"/>
<text text-anchor="middle" x="603.5" y="-156.38" font-family="Noto Sans JP" font-size="13.00" fill="#5f4f75">Cloudflare Worker（プロキシ＋KV）</text>
</g>
<g id="clust5" class="cluster">
<title>cluster_app</title>
<path fill="#e9f3ee" stroke="#bcd6c6" d="M1061,-232.78C1061,-232.78 1389,-232.78 1389,-232.78 1395,-232.78 1401,-238.78 1401,-244.78 1401,-244.78 1401,-294.78 1401,-294.78 1401,-300.78 1395,-306.78 1389,-306.78 1389,-306.78 1061,-306.78 1061,-306.78 1055,-306.78 1049,-300.78 1049,-294.78 1049,-294.78 1049,-244.78 1049,-244.78 1049,-238.78 1055,-232.78 1061,-232.78"/>
<text text-anchor="middle" x="1225" y="-292.38" font-family="Noto Sans JP" font-size="13.00" fill="#4f7560">アプリ（GitHub Pages PWA・スマホ）</text>
</g>
<!-- MF -->
<g id="node1" class="node">
<title>MF</title>
<path fill="#ffffff" stroke="#d8cfc6" d="M125.5,-458.78C125.5,-458.78 50.5,-458.78 50.5,-458.78 44.5,-458.78 38.5,-452.78 38.5,-446.78 38.5,-446.78 38.5,-434.78 38.5,-434.78 38.5,-428.78 44.5,-422.78 50.5,-422.78 50.5,-422.78 125.5,-422.78 125.5,-422.78 131.5,-422.78 137.5,-428.78 137.5,-434.78 137.5,-434.78 137.5,-446.78 137.5,-446.78 137.5,-452.78 131.5,-458.78 125.5,-458.78"/>
<text text-anchor="middle" x="88" y="-443.78" font-family="Noto Sans JP" font-size="10.00" fill="#2a2a2a">Money Forward</text>
<text text-anchor="middle" x="88" y="-432.78" font-family="Noto Sans JP" font-size="10.00" fill="#2a2a2a">（全資産・口座）</text>
</g>
<!-- CHROME -->
<g id="node11" class="node">
<title>CHROME</title>
<path fill="#eef3ee" stroke="#bcd0bc" d="M639,-467.78C639,-467.78 496,-467.78 496,-467.78 490,-467.78 484,-461.78 484,-455.78 484,-455.78 484,-443.78 484,-443.78 484,-437.78 490,-431.78 496,-431.78 496,-431.78 639,-431.78 639,-431.78 645,-431.78 651,-437.78 651,-443.78 651,-443.78 651,-455.78 651,-455.78 651,-461.78 645,-467.78 639,-467.78"/>
<text text-anchor="middle" x="567.5" y="-452.78" font-family="Noto Sans JP" font-size="10.00" fill="#2a2a2a">Claude for Chrome</text>
<text text-anchor="middle" x="567.5" y="-441.78" font-family="Noto Sans JP" font-size="10.00" fill="#2a2a2a">（ログイン済ブラウザ＝運び屋）</text>
</g>
<!-- MF&#45;&gt;CHROME -->
<g id="edge1" class="edge">
<title>MF&#45;&gt;CHROME</title>
<path fill="none" stroke="#9b8f84" d="M137.86,-441.7C216.68,-443.19 373.21,-446.14 473.72,-448.03"/>
<polygon fill="#9b8f84" stroke="#9b8f84" points="473.81,-451.54 483.87,-448.23 473.94,-444.54 473.81,-451.54"/>
<text text-anchor="middle" x="319" y="-448.38" font-family="Noto Sans JP" font-size="8.00" fill="#7a6f64">2FA手動</text>
</g>
<!-- NOTEAPI -->
<g id="node2" class="node">
<title>NOTEAPI</title>
<path fill="#ffffff" stroke="#d8cfc6" d="M143.5,-350.78C143.5,-350.78 32.5,-350.78 32.5,-350.78 26.5,-350.78 20.5,-344.78 20.5,-338.78 20.5,-338.78 20.5,-326.78 20.5,-326.78 20.5,-320.78 26.5,-314.78 32.5,-314.78 32.5,-314.78 143.5,-314.78 143.5,-314.78 149.5,-314.78 155.5,-320.78 155.5,-326.78 155.5,-326.78 155.5,-338.78 155.5,-338.78 155.5,-344.78 149.5,-350.78 143.5,-350.78"/>
<text text-anchor="middle" x="88" y="-335.78" font-family="Noto Sans JP" font-size="10.00" fill="#2a2a2a">note API + Cookie</text>
<text text-anchor="middle" x="88" y="-324.78" font-family="Noto Sans JP" font-size="10.00" fill="#2a2a2a">（じっちゃま/ゆな/藤沢）</text>
</g>
<!-- MULMO -->
<g id="node6" class="node">
<title>MULMO</title>
<path fill="#cc785c" stroke="#a85638" d="M368.5,-388.78C368.5,-388.78 269.5,-388.78 269.5,-388.78 263.5,-388.78 257.5,-382.78 257.5,-376.78 257.5,-376.78 257.5,-364.78 257.5,-364.78 257.5,-358.78 263.5,-352.78 269.5,-352.78 269.5,-352.78 368.5,-352.78 368.5,-352.78 374.5,-352.78 380.5,-358.78 380.5,-364.78 380.5,-364.78 380.5,-376.78 380.5,-376.78 380.5,-382.78 374.5,-388.78 368.5,-388.78"/>
<text text-anchor="middle" x="319" y="-373.78" font-family="Noto Sans JP" font-size="10.00" fill="#ffffff">MulmoClaude</text>
<text text-anchor="middle" x="319" y="-362.78" font-family="Noto Sans JP" font-size="10.00" fill="#ffffff">壁打ち・生成・PM判断</text>
</g>
<!-- NOTEAPI&#45;&gt;MULMO -->
<g id="edge3" class="edge">
<title>NOTEAPI&#45;&gt;MULMO</title>
<path fill="none" stroke="#9b8f84" d="M155.54,-343.83C184.25,-348.59 217.86,-354.17 247.04,-359.01"/>
<polygon fill="#9b8f84" stroke="#9b8f84" points="246.73,-362.5 257.16,-360.69 247.87,-355.6 246.73,-362.5"/>
<text text-anchor="middle" x="202.5" y="-357.38" font-family="Noto Sans JP" font-size="8.00" fill="#7a6f64">蒸留</text>
</g>
<!-- GMAIL -->
<g id="node3" class="node">
<title>GMAIL</title>
<path fill="#ffffff" stroke="#d8cfc6" d="M125.5,-242.78C125.5,-242.78 50.5,-242.78 50.5,-242.78 44.5,-242.78 38.5,-236.78 38.5,-230.78 38.5,-230.78 38.5,-218.78 38.5,-218.78 38.5,-212.78 44.5,-206.78 50.5,-206.78 50.5,-206.78 125.5,-206.78 125.5,-206.78 131.5,-206.78 137.5,-212.78 137.5,-218.78 137.5,-218.78 137.5,-230.78 137.5,-230.78 137.5,-236.78 131.5,-242.78 125.5,-242.78"/>
<text text-anchor="middle" x="88" y="-227.78" font-family="Noto Sans JP" font-size="10.00" fill="#2a2a2a">Gmail / mag2</text>
<text text-anchor="middle" x="88" y="-216.78" font-family="Noto Sans JP" font-size="10.00" fill="#2a2a2a">（メルマガ全文）</text>
</g>
<!-- GMAIL&#45;&gt;MULMO -->
<g id="edge4" class="edge">
<title>GMAIL&#45;&gt;MULMO</title>
<path fill="none" stroke="#9b8f84" d="M137.67,-238.66C147.95,-242.34 158.54,-246.73 168,-251.78 197.09,-267.32 209.36,-268.92 227,-296.78 238.42,-314.83 222.77,-327.86 237,-343.78 240.34,-347.52 244.22,-350.75 248.43,-353.52"/>
<polygon fill="#9b8f84" stroke="#9b8f84" points="247.04,-356.76 257.47,-358.62 250.47,-350.66 247.04,-356.76"/>
<text text-anchor="middle" x="202.5" y="-299.38" font-family="Noto Sans JP" font-size="8.00" fill="#7a6f64">蒸留</text>
</g>
<!-- WEBSRCH -->
<g id="node4" class="node">
<title>WEBSRCH</title>
<path fill="#ffffff" stroke="#d8cfc6" d="M148,-296.78C148,-296.78 28,-296.78 28,-296.78 22,-296.78 16,-290.78 16,-284.78 16,-284.78 16,-272.78 16,-272.78 16,-266.78 22,-260.78 28,-260.78 28,-260.78 148,-260.78 148,-260.78 154,-260.78 160,-266.78 160,-272.78 160,-272.78 160,-284.78 160,-284.78 160,-290.78 154,-296.78 148,-296.78"/>
<text text-anchor="middle" x="88" y="-281.78" font-family="Noto Sans JP" font-size="10.00" fill="#2a2a2a">WebSearch</text>
<text text-anchor="middle" x="88" y="-270.78" font-family="Noto Sans JP" font-size="10.00" fill="#2a2a2a">（マクロ/PER/カレンダー）</text>
</g>
<!-- WEBSRCH&#45;&gt;MULMO -->
<g id="edge6" class="edge">
<title>WEBSRCH&#45;&gt;MULMO</title>
<path fill="none" stroke="#9b8f84" d="M145.99,-296.93C153.47,-299.7 160.97,-302.68 168,-305.78 200.02,-319.94 204.93,-329.75 237,-343.78 241.16,-345.6 245.49,-347.38 249.88,-349.08"/>
<polygon fill="#9b8f84" stroke="#9b8f84" points="248.96,-352.48 259.55,-352.72 251.42,-345.93 248.96,-352.48"/>
</g>
<!-- BIGDATA -->
<g id="node5" class="node">
<title>BIGDATA</title>
<path fill="#ffffff" stroke="#d8cfc6" d="M127,-404.78C127,-404.78 49,-404.78 49,-404.78 43,-404.78 37,-398.78 37,-392.78 37,-392.78 37,-380.78 37,-380.78 37,-374.78 43,-368.78 49,-368.78 49,-368.78 127,-368.78 127,-368.78 133,-368.78 139,-374.78 139,-380.78 139,-380.78 139,-392.78 139,-392.78 139,-398.78 133,-404.78 127,-404.78"/>
<text text-anchor="middle" x="88" y="-389.78" font-family="Noto Sans JP" font-size="10.00" fill="#2a2a2a">Bigdata.com MCP</text>
<text text-anchor="middle" x="88" y="-378.78" font-family="Noto Sans JP" font-size="10.00" fill="#2a2a2a">（企業ファンダ）</text>
</g>
<!-- BIGDATA&#45;&gt;MULMO -->
<g id="edge5" class="edge">
<title>BIGDATA&#45;&gt;MULMO</title>
<path fill="none" stroke="#9b8f84" d="M139.26,-383.27C170.89,-381.06 212.2,-378.18 247.14,-375.73"/>
<polygon fill="#9b8f84" stroke="#9b8f84" points="247.55,-379.21 257.28,-375.03 247.06,-372.23 247.55,-379.21"/>
</g>
<!-- WIKI -->
<g id="node7" class="node">
<title>WIKI</title>
<polygon fill="#fbeee7" stroke="#d8cfc6" points="642.5,-276.28 639.5,-280.28 618.5,-280.28 615.5,-276.28 492.5,-276.28 492.5,-231.28 642.5,-231.28 642.5,-276.28"/>
<text text-anchor="middle" x="567.5" y="-262.28" font-family="Noto Sans JP" font-size="10.00" fill="#2a2a2a">Wiki</text>
<text text-anchor="middle" x="567.5" y="-251.28" font-family="Noto Sans JP" font-size="10.00" fill="#2a2a2a">mh&#45;*/lib&#45;*/ゆな/藤沢</text>
<text text-anchor="middle" x="567.5" y="-240.28" font-family="Noto Sans JP" font-size="10.00" fill="#2a2a2a">★investment&#45;watchlist 台帳</text>
</g>
<!-- MULMO&#45;&gt;WIKI -->
<g id="edge7" class="edge">
<title>MULMO&#45;&gt;WIKI</title>
<path fill="none" stroke="#9b8f84" d="M388.8,-347.06C390.25,-346.01 391.65,-344.92 393,-343.78 405.19,-333.53 398.85,-323.09 411,-312.78 431.5,-295.39 457.65,-282.84 482.64,-273.92"/>
<polygon fill="#9b8f84" stroke="#9b8f84" points="386.67,-344.27 380.1,-352.58 390.42,-350.17 386.67,-344.27"/>
<polygon fill="#9b8f84" stroke="#9b8f84" points="483.81,-277.22 492.15,-270.67 481.55,-270.59 483.81,-277.22"/>
</g>
<!-- MEMORY -->
<g id="node8" class="node">
<title>MEMORY</title>
<polygon fill="#fbeee7" stroke="#d8cfc6" points="612,-393.78 609,-397.78 588,-397.78 585,-393.78 523,-393.78 523,-357.78 612,-357.78 612,-393.78"/>
<text text-anchor="middle" x="567.5" y="-378.78" font-family="Noto Sans JP" font-size="10.00" fill="#2a2a2a">Memory</text>
<text text-anchor="middle" x="567.5" y="-367.78" font-family="Noto Sans JP" font-size="10.00" fill="#2a2a2a">fact / reference</text>
</g>
<!-- MULMO&#45;&gt;MEMORY -->
<g id="edge8" class="edge">
<title>MULMO&#45;&gt;MEMORY</title>
<path fill="none" stroke="#9b8f84" d="M390.65,-372.22C429.43,-373 476.76,-373.96 512.54,-374.69"/>
<polygon fill="#9b8f84" stroke="#9b8f84" points="390.69,-368.72 380.62,-372.01 390.54,-375.71 390.69,-368.72"/>
<polygon fill="#9b8f84" stroke="#9b8f84" points="512.71,-378.19 522.78,-374.9 512.85,-371.19 512.71,-378.19"/>
</g>
<!-- SKILLS -->
<g id="node9" class="node">
<title>SKILLS</title>
<path fill="#fbeee7" stroke="#d8cfc6" d="M617.5,-339.28C617.5,-339.28 517.5,-339.28 517.5,-339.28 511.5,-339.28 505.5,-333.28 505.5,-327.28 505.5,-327.28 505.5,-306.28 505.5,-306.28 505.5,-300.28 511.5,-294.28 517.5,-294.28 517.5,-294.28 617.5,-294.28 617.5,-294.28 623.5,-294.28 629.5,-300.28 629.5,-306.28 629.5,-306.28 629.5,-327.28 629.5,-327.28 629.5,-333.28 623.5,-339.28 617.5,-339.28"/>
<text text-anchor="middle" x="567.5" y="-325.28" font-family="Noto Sans JP" font-size="10.00" fill="#2a2a2a">Skills</text>
<text text-anchor="middle" x="567.5" y="-314.28" font-family="Noto Sans JP" font-size="10.00" fill="#2a2a2a">briefing&#45;weekly</text>
<text text-anchor="middle" x="567.5" y="-303.28" font-family="Noto Sans JP" font-size="10.00" fill="#2a2a2a">life&#45;is&#45;beautiful&#45;ingest</text>
</g>
<!-- MULMO&#45;&gt;SKILLS -->
<g id="edge9" class="edge">
<title>MULMO&#45;&gt;SKILLS</title>
<path fill="none" stroke="#9b8f84" d="M380.62,-357.5C415.28,-349.91 458.94,-340.35 495.23,-332.4"/>
<polygon fill="#9b8f84" stroke="#9b8f84" points="496.24,-335.76 505.26,-330.2 494.74,-328.92 496.24,-335.76"/>
</g>
<!-- KVW -->
<g id="node17" class="node">
<title>KVW</title>
<path fill="#ffffff" stroke="#d8cfc6" d="M932.5,-136.81C932.5,-139.14 903.81,-141.03 868.5,-141.03 833.19,-141.03 804.5,-139.14 804.5,-136.81 804.5,-136.81 804.5,-98.76 804.5,-98.76 804.5,-96.43 833.19,-94.53 868.5,-94.53 903.81,-94.53 932.5,-96.43 932.5,-98.76 932.5,-98.76 932.5,-136.81 932.5,-136.81"/>
<path fill="none" stroke="#d8cfc6" d="M932.5,-136.81C932.5,-134.47 903.81,-132.58 868.5,-132.58 833.19,-132.58 804.5,-134.47 804.5,-136.81"/>
<text text-anchor="middle" x="868.5" y="-120.78" font-family="Noto Sans JP" font-size="10.00" fill="#2a2a2a">KV: watchlist</text>
<text text-anchor="middle" x="868.5" y="-109.78" font-family="Noto Sans JP" font-size="10.00" fill="#2a2a2a">★各銘柄 valuation 採点</text>
</g>
<!-- WIKI&#45;&gt;KVW -->
<g id="edge11" class="edge">
<title>WIKI&#45;&gt;KVW</title>
<path fill="none" stroke="#cc785c" d="M611.72,-231.2C629.17,-222.71 649.72,-213.5 669,-206.78 710.84,-192.21 726.76,-204.35 766,-183.78 771.3,-181.01 771.22,-178.38 776,-174.78 789.38,-164.72 804.57,-154.73 818.69,-145.99"/>
<polygon fill="#cc785c" stroke="#cc785c" points="820.6,-148.93 827.31,-140.72 816.95,-142.95 820.6,-148.93"/>
<text text-anchor="middle" x="717.5" y="-209.38" font-family="Noto Sans JP" font-size="8.00" fill="#a85638">①追加時 同期(PUT)</text>
</g>
<!-- SKILLS&#45;&gt;WEBSRCH -->
<g id="edge13" class="edge">
<title>SKILLS&#45;&gt;WEBSRCH</title>
<path fill="none" stroke="#9b8f84" stroke-dasharray="5,2" d="M505.14,-300.96C472.15,-293.24 430.63,-284.77 393,-280.78 317.8,-272.81 231.56,-273.14 170.18,-274.97"/>
<polygon fill="#9b8f84" stroke="#9b8f84" points="170.05,-271.47 160.17,-275.29 170.27,-278.47 170.05,-271.47"/>
<text text-anchor="middle" x="319" y="-283.38" font-family="Noto Sans JP" font-size="8.00" fill="#7a6f64">マクロ取得</text>
</g>
<!-- BRIEF -->
<g id="node14" class="node">
<title>BRIEF</title>
<polygon fill="#ffffff" stroke="#d8cfc6" points="922,-384.78 809,-384.78 809,-348.78 928,-348.78 928,-378.78 922,-384.78"/>
<polyline fill="none" stroke="#d8cfc6" points="922,-384.78 922,-378.78 "/>
<polyline fill="none" stroke="#d8cfc6" points="928,-378.78 922,-378.78 "/>
<text text-anchor="middle" x="868.5" y="-369.78" font-family="Noto Sans JP" font-size="10.00" fill="#2a2a2a">data/briefings/*.html</text>
<text text-anchor="middle" x="868.5" y="-358.78" font-family="Noto Sans JP" font-size="10.00" fill="#2a2a2a">＋ index.json</text>
</g>
<!-- SKILLS&#45;&gt;BRIEF -->
<g id="edge15" class="edge">
<title>SKILLS&#45;&gt;BRIEF</title>
<path fill="none" stroke="#9b8f84" d="M629.55,-334.72C642.5,-338.09 656.13,-341.32 669,-343.78 711.85,-351.98 760.51,-357.67 798.92,-361.34"/>
<polygon fill="#9b8f84" stroke="#9b8f84" points="798.68,-364.84 808.96,-362.28 799.33,-357.87 798.68,-364.84"/>
<text text-anchor="middle" x="717.5" y="-359.38" font-family="Noto Sans JP" font-size="8.00" fill="#7a6f64">HTML生成→commit/push</text>
</g>
<!-- SKILLS&#45;&gt;KVW -->
<g id="edge14" class="edge">
<title>SKILLS&#45;&gt;KVW</title>
<path fill="none" stroke="#cc785c" stroke-dasharray="5,2" d="M629.75,-300.64C637.56,-296.7 644.92,-291.82 651,-285.78 666.87,-270.02 652.17,-253.51 669,-238.78 702.34,-209.6 734.57,-247.01 766,-215.78 779.31,-202.56 765,-189.98 776,-174.78 784.39,-163.19 795.93,-153.44 807.98,-145.46"/>
<polygon fill="#cc785c" stroke="#cc785c" points="810.18,-148.22 816.82,-139.97 806.48,-142.28 810.18,-148.22"/>
<text text-anchor="middle" x="717.5" y="-241.38" font-family="Noto Sans JP" font-size="8.00" fill="#7a6f64">再採点(GET→PUT)</text>
</g>
<!-- SCHED -->
<g id="node10" class="node">
<title>SCHED</title>
<path fill="#fbeee7" stroke="#d8cfc6" d="M381,-334.78C381,-334.78 257,-334.78 257,-334.78 251,-334.78 245,-328.78 245,-322.78 245,-322.78 245,-310.78 245,-310.78 245,-304.78 251,-298.78 257,-298.78 257,-298.78 381,-298.78 381,-298.78 387,-298.78 393,-304.78 393,-310.78 393,-310.78 393,-322.78 393,-322.78 393,-328.78 387,-334.78 381,-334.78"/>
<text text-anchor="middle" x="319" y="-319.78" font-family="Noto Sans JP" font-size="10.00" fill="#2a2a2a">Scheduler</text>
<text text-anchor="middle" x="319" y="-308.78" font-family="Noto Sans JP" font-size="10.00" fill="#2a2a2a">config/scheduler/tasks.json</text>
</g>
<!-- SCHED&#45;&gt;SKILLS -->
<g id="edge10" class="edge">
<title>SCHED&#45;&gt;SKILLS</title>
<path fill="none" stroke="#9b8f84" d="M393.29,-316.78C425.43,-316.78 463.03,-316.78 494.97,-316.78"/>
<polygon fill="#9b8f84" stroke="#9b8f84" points="495.13,-320.28 505.13,-316.78 495.13,-313.28 495.13,-320.28"/>
<text text-anchor="middle" x="438.5" y="-319.38" font-family="Noto Sans JP" font-size="8.00" fill="#7a6f64">土曜/毎日 起動</text>
</g>
<!-- MFH -->
<g id="node12" class="node">
<title>MFH</title>
<polygon fill="#ffffff" stroke="#d8cfc6" points="924.5,-222.78 806.5,-222.78 806.5,-186.78 930.5,-186.78 930.5,-216.78 924.5,-222.78"/>
<polyline fill="none" stroke="#d8cfc6" points="924.5,-222.78 924.5,-216.78 "/>
<polyline fill="none" stroke="#d8cfc6" points="930.5,-216.78 924.5,-216.78 "/>
<text text-anchor="middle" x="868.5" y="-207.78" font-family="Noto Sans JP" font-size="10.00" fill="#2a2a2a">data/mf&#45;holdings.json</text>
<text text-anchor="middle" x="868.5" y="-196.78" font-family="Noto Sans JP" font-size="10.00" fill="#2a2a2a">（保有実値）</text>
</g>
<!-- CHROME&#45;&gt;MFH -->
<g id="edge2" class="edge">
<title>CHROME&#45;&gt;MFH</title>
<path fill="none" stroke="#9b8f84" d="M646.83,-431.76C648.29,-430.51 649.69,-429.19 651,-427.78 679.72,-397 639.86,-365.17 669,-334.78 699.67,-302.81 736.41,-344.76 766,-311.78 789.93,-285.11 752.8,-259.09 776,-231.78 781.63,-225.16 788.79,-220.12 796.62,-216.29"/>
<polygon fill="#9b8f84" stroke="#9b8f84" points="798.21,-219.42 806.08,-212.32 795.5,-212.96 798.21,-219.42"/>
<text text-anchor="middle" x="717.5" y="-337.38" font-family="Noto Sans JP" font-size="8.00" fill="#7a6f64">スナップショット</text>
</g>
<!-- MFH&#45;&gt;SKILLS -->
<g id="edge16" class="edge">
<title>MFH&#45;&gt;SKILLS</title>
<path fill="none" stroke="#9b8f84" d="M806.17,-212.99C794.86,-217.04 784.08,-223.01 776,-231.78 761.23,-247.81 781.56,-264.53 766,-279.78 761.33,-284.36 694.4,-296.26 639.73,-305.35"/>
<polygon fill="#9b8f84" stroke="#9b8f84" points="638.98,-301.92 629.68,-307.01 640.12,-308.83 638.98,-301.92"/>
<text text-anchor="middle" x="717.5" y="-302.38" font-family="Noto Sans JP" font-size="8.00" fill="#7a6f64">保有読込</text>
</g>
<!-- APP -->
<g id="node20" class="node">
<title>APP</title>
<path fill="#ffffff" stroke="#d8cfc6" d="M1171,-276.78C1171,-276.78 1069,-276.78 1069,-276.78 1063,-276.78 1057,-270.78 1057,-264.78 1057,-264.78 1057,-252.78 1057,-252.78 1057,-246.78 1063,-240.78 1069,-240.78 1069,-240.78 1171,-240.78 1171,-240.78 1177,-240.78 1183,-246.78 1183,-252.78 1183,-252.78 1183,-264.78 1183,-264.78 1183,-270.78 1177,-276.78 1171,-276.78"/>
<text text-anchor="middle" x="1120" y="-256.28" font-family="Noto Sans JP" font-size="10.00" fill="#2a2a2a">Portfolio Heatmap App</text>
</g>
<!-- MFH&#45;&gt;APP -->
<g id="edge25" class="edge">
<title>MFH&#45;&gt;APP</title>
<path fill="none" stroke="#9b8f84" d="M930.53,-217.99C965.61,-225.58 1009.88,-235.16 1046.69,-243.13"/>
<polygon fill="#9b8f84" stroke="#9b8f84" points="1046.35,-246.64 1056.86,-245.33 1047.83,-239.8 1046.35,-246.64"/>
<text text-anchor="middle" x="1005" y="-244.38" font-family="Noto Sans JP" font-size="8.00" fill="#7a6f64">総資産表示</text>
</g>
<!-- POS -->
<g id="node13" class="node">
<title>POS</title>
<polygon fill="#ffffff" stroke="#d8cfc6" points="918,-330.78 813,-330.78 813,-294.78 924,-294.78 924,-324.78 918,-330.78"/>
<polyline fill="none" stroke="#d8cfc6" points="918,-330.78 918,-324.78 "/>
<polyline fill="none" stroke="#d8cfc6" points="924,-324.78 918,-324.78 "/>
<text text-anchor="middle" x="868.5" y="-315.78" font-family="Noto Sans JP" font-size="10.00" fill="#2a2a2a">data/positions.json</text>
<text text-anchor="middle" x="868.5" y="-304.78" font-family="Noto Sans JP" font-size="10.00" fill="#2a2a2a">（ライブ証券）</text>
</g>
<!-- POS&#45;&gt;APP -->
<g id="edge26" class="edge">
<title>POS&#45;&gt;APP</title>
<path fill="none" stroke="#9b8f84" d="M924.25,-300.93C960.2,-293.15 1007.62,-282.89 1046.66,-274.44"/>
<polygon fill="#9b8f84" stroke="#9b8f84" points="1047.88,-277.76 1056.91,-272.22 1046.4,-270.92 1047.88,-277.76"/>
<text text-anchor="middle" x="1005" y="-292.38" font-family="Noto Sans JP" font-size="8.00" fill="#7a6f64">値動き表示</text>
</g>
<!-- TABS -->
<g id="node21" class="node">
<title>TABS</title>
<path fill="#ffffff" stroke="#d8cfc6" d="M1381,-276.78C1381,-276.78 1232,-276.78 1232,-276.78 1226,-276.78 1220,-270.78 1220,-264.78 1220,-264.78 1220,-252.78 1220,-252.78 1220,-246.78 1226,-240.78 1232,-240.78 1232,-240.78 1381,-240.78 1381,-240.78 1387,-240.78 1393,-246.78 1393,-252.78 1393,-252.78 1393,-264.78 1393,-264.78 1393,-270.78 1387,-276.78 1381,-276.78"/>
<text text-anchor="middle" x="1306.5" y="-261.78" font-family="Noto Sans JP" font-size="10.00" fill="#2a2a2a">タブ: Heatmap / Historical /</text>
<text text-anchor="middle" x="1306.5" y="-250.78" font-family="Noto Sans JP" font-size="10.00" fill="#2a2a2a">Watchlist（★PER採点）/ Briefing</text>
</g>
<!-- BRIEF&#45;&gt;TABS -->
<g id="edge18" class="edge">
<title>BRIEF&#45;&gt;TABS</title>
<path fill="none" stroke="#9b8f84" d="M928.3,-352.22C1004.29,-333.4 1137.01,-300.52 1223.04,-279.21"/>
<polygon fill="#9b8f84" stroke="#9b8f84" points="1223.91,-282.6 1232.77,-276.8 1222.23,-275.8 1223.91,-282.6"/>
<text text-anchor="middle" x="1120" y="-324.38" font-family="Noto Sans JP" font-size="8.00" fill="#7a6f64">Briefingタブ iframe</text>
</g>
<!-- CI -->
<g id="node15" class="node">
<title>CI</title>
<path fill="#dde6ef" stroke="#d8cfc6" d="M934,-276.78C934,-276.78 803,-276.78 803,-276.78 797,-276.78 791,-270.78 791,-264.78 791,-264.78 791,-252.78 791,-252.78 791,-246.78 797,-240.78 803,-240.78 803,-240.78 934,-240.78 934,-240.78 940,-240.78 946,-246.78 946,-252.78 946,-252.78 946,-264.78 946,-264.78 946,-270.78 940,-276.78 934,-276.78"/>
<text text-anchor="middle" x="868.5" y="-261.78" font-family="Noto Sans JP" font-size="10.00" fill="#2a2a2a">GitHub Actions</text>
<text text-anchor="middle" x="868.5" y="-250.78" font-family="Noto Sans JP" font-size="10.00" fill="#2a2a2a">tests / e2e / build&#45;dist / Pages</text>
</g>
<!-- CI&#45;&gt;APP -->
<g id="edge17" class="edge">
<title>CI&#45;&gt;APP</title>
<path fill="none" stroke="#9b8f84" d="M946.05,-258.78C978.11,-258.78 1015.18,-258.78 1046.76,-258.78"/>
<polygon fill="#9b8f84" stroke="#9b8f84" points="1046.81,-262.28 1056.81,-258.78 1046.81,-255.28 1046.81,-262.28"/>
<text text-anchor="middle" x="1005" y="-261.38" font-family="Noto Sans JP" font-size="8.00" fill="#7a6f64">dist build / deploy</text>
</g>
<!-- WORKER -->
<g id="node16" class="node">
<title>WORKER</title>
<path fill="#ffffff" stroke="#d8cfc6" d="M638,-140.28C638,-140.28 497,-140.28 497,-140.28 491,-140.28 485,-134.28 485,-128.28 485,-128.28 485,-107.28 485,-107.28 485,-101.28 491,-95.28 497,-95.28 497,-95.28 638,-95.28 638,-95.28 644,-95.28 650,-101.28 650,-107.28 650,-107.28 650,-128.28 650,-128.28 650,-134.28 644,-140.28 638,-140.28"/>
<text text-anchor="middle" x="567.5" y="-126.28" font-family="Noto Sans JP" font-size="10.00" fill="#2a2a2a">Worker</text>
<text text-anchor="middle" x="567.5" y="-115.28" font-family="Noto Sans JP" font-size="10.00" fill="#2a2a2a">/finnhub /yahoo /forex</text>
<text text-anchor="middle" x="567.5" y="-104.28" font-family="Noto Sans JP" font-size="10.00" fill="#2a2a2a">/watchlist /positions /snapshot</text>
</g>
<!-- WORKER&#45;&gt;MFH -->
<g id="edge24" class="edge">
<title>WORKER&#45;&gt;MFH</title>
<path fill="none" stroke="#9b8f84" stroke-dasharray="5,2" d="M632.29,-140.36C644.41,-144.37 657.05,-148.35 669,-151.78 711.59,-164.01 723.18,-163.39 766,-174.78 776.54,-177.59 787.64,-180.7 798.49,-183.84"/>
<polygon fill="#9b8f84" stroke="#9b8f84" points="797.77,-187.27 808.35,-186.71 799.72,-180.55 797.77,-187.27"/>
<text text-anchor="middle" x="717.5" y="-177.38" font-family="Noto Sans JP" font-size="8.00" fill="#7a6f64">snapshot</text>
</g>
<!-- WORKER&#45;&gt;POS -->
<g id="edge23" class="edge">
<title>WORKER&#45;&gt;POS</title>
<path fill="none" stroke="#9b8f84" stroke-dasharray="5,2" d="M588.38,-140.38C605.66,-160.42 631,-190.78 651,-218.78 659.82,-231.13 656.69,-238.92 669,-247.78 704.96,-273.67 729.63,-245.48 766,-270.78 772.58,-275.36 769.55,-281.03 776,-285.78 784.1,-291.75 793.51,-296.41 803.15,-300.04"/>
<polygon fill="#9b8f84" stroke="#9b8f84" points="802.23,-303.42 812.83,-303.34 804.49,-296.8 802.23,-303.42"/>
<text text-anchor="middle" x="717.5" y="-273.38" font-family="Noto Sans JP" font-size="8.00" fill="#7a6f64">KV→Git同期</text>
</g>
<!-- WORKER&#45;&gt;KVW -->
<g id="edge20" class="edge">
<title>WORKER&#45;&gt;KVW</title>
<path fill="none" stroke="#9b8f84" d="M650.2,-117.78C695.18,-117.78 750.55,-117.78 794.14,-117.78"/>
<polygon fill="#9b8f84" stroke="#9b8f84" points="794.39,-121.28 804.39,-117.78 794.39,-114.28 794.39,-121.28"/>
</g>
<!-- KVP -->
<g id="node18" class="node">
<title>KVP</title>
<path fill="#ffffff" stroke="#d8cfc6" d="M920.5,-73.51C920.5,-75.32 897.19,-76.78 868.5,-76.78 839.81,-76.78 816.5,-75.32 816.5,-73.51 816.5,-73.51 816.5,-44.06 816.5,-44.06 816.5,-42.25 839.81,-40.78 868.5,-40.78 897.19,-40.78 920.5,-42.25 920.5,-44.06 920.5,-44.06 920.5,-73.51 920.5,-73.51"/>
<path fill="none" stroke="#d8cfc6" d="M920.5,-73.51C920.5,-71.7 897.19,-70.24 868.5,-70.24 839.81,-70.24 816.5,-71.7 816.5,-73.51"/>
<text text-anchor="middle" x="868.5" y="-56.28" font-family="Noto Sans JP" font-size="10.00" fill="#2a2a2a">KV: positions / pin</text>
</g>
<!-- WORKER&#45;&gt;KVP -->
<g id="edge21" class="edge">
<title>WORKER&#45;&gt;KVP</title>
<path fill="none" stroke="#9b8f84" d="M650.2,-101.66C699.55,-91.92 761.41,-79.72 806.49,-70.82"/>
<polygon fill="#9b8f84" stroke="#9b8f84" points="807.29,-74.23 816.42,-68.86 805.93,-67.36 807.29,-74.23"/>
</g>
<!-- KVW&#45;&gt;WIKI -->
<g id="edge12" class="edge">
<title>KVW&#45;&gt;WIKI</title>
<path fill="none" stroke="#cc785c" d="M804.21,-119.64C754.62,-122.21 690.55,-128.3 669,-142.78 655.46,-151.89 661,-161.89 651,-174.78 637.23,-192.53 619.5,-210.04 604.01,-224.04"/>
<polygon fill="#cc785c" stroke="#cc785c" points="601.29,-221.77 596.14,-231.03 605.94,-227 601.29,-221.77"/>
<text text-anchor="middle" x="717.5" y="-145.38" font-family="Noto Sans JP" font-size="8.00" fill="#a85638">②週次 再採点 書戻し</text>
</g>
<!-- CRON -->
<g id="node19" class="node">
<title>CRON</title>
<path fill="#ffffff" stroke="#d8cfc6" d="M351.5,-135.78C351.5,-135.78 286.5,-135.78 286.5,-135.78 280.5,-135.78 274.5,-129.78 274.5,-123.78 274.5,-123.78 274.5,-111.78 274.5,-111.78 274.5,-105.78 280.5,-99.78 286.5,-99.78 286.5,-99.78 351.5,-99.78 351.5,-99.78 357.5,-99.78 363.5,-105.78 363.5,-111.78 363.5,-111.78 363.5,-123.78 363.5,-123.78 363.5,-129.78 357.5,-135.78 351.5,-135.78"/>
<text text-anchor="middle" x="319" y="-120.78" font-family="Noto Sans JP" font-size="10.00" fill="#2a2a2a">Cron 6h</text>
<text text-anchor="middle" x="319" y="-109.78" font-family="Noto Sans JP" font-size="10.00" fill="#2a2a2a">価格キャッシュ</text>
</g>
<!-- CRON&#45;&gt;WORKER -->
<g id="edge22" class="edge">
<title>CRON&#45;&gt;WORKER</title>
<path fill="none" stroke="#9b8f84" d="M363.5,-117.78C394.27,-117.78 436.66,-117.78 474.74,-117.78"/>
<polygon fill="#9b8f84" stroke="#9b8f84" points="474.84,-121.28 484.84,-117.78 474.84,-114.28 474.84,-121.28"/>
</g>
<!-- APP&#45;&gt;WORKER -->
<g id="edge19" class="edge">
<title>APP&#45;&gt;WORKER</title>
<path fill="none" stroke="#9b8f84" d="M1110.29,-231.18C1092.18,-179.12 1045,-67.63 961,-22.78 843.48,39.97 684.16,-42.78 609.85,-89.6"/>
<polygon fill="#9b8f84" stroke="#9b8f84" points="1107.01,-232.41 1113.53,-240.77 1113.64,-230.17 1107.01,-232.41"/>
<polygon fill="#9b8f84" stroke="#9b8f84" points="607.76,-86.79 601.22,-95.12 611.53,-92.68 607.76,-86.79"/>
<text text-anchor="middle" x="868.5" y="-25.38" font-family="Noto Sans JP" font-size="8.00" fill="#7a6f64">価格/為替/watchlist 取得</text>
</g>
<!-- APP&#45;&gt;TABS -->
<g id="edge27" class="edge">
<title>APP&#45;&gt;TABS</title>
<path fill="none" stroke="#9b8f84" d="M1183.21,-258.78C1191.8,-258.78 1200.77,-258.78 1209.8,-258.78"/>
<polygon fill="#9b8f84" stroke="#9b8f84" points="1209.98,-262.28 1219.98,-258.78 1209.98,-255.28 1209.98,-262.28"/>
</g>
<!-- TG -->
<g id="node22" class="node">
<title>TG</title>
<path fill="#eef1f5" stroke="#c2cad6" d="M134.5,-532.78C134.5,-532.78 41.5,-532.78 41.5,-532.78 35.5,-532.78 29.5,-526.78 29.5,-520.78 29.5,-520.78 29.5,-508.78 29.5,-508.78 29.5,-502.78 35.5,-496.78 41.5,-496.78 41.5,-496.78 134.5,-496.78 134.5,-496.78 140.5,-496.78 146.5,-502.78 146.5,-508.78 146.5,-508.78 146.5,-520.78 146.5,-520.78 146.5,-526.78 140.5,-532.78 134.5,-532.78"/>
<text text-anchor="middle" x="88" y="-517.78" font-family="Noto Sans JP" font-size="10.00" fill="#2a2a2a">Telegram bot</text>
<text text-anchor="middle" x="88" y="-506.78" font-family="Noto Sans JP" font-size="10.00" fill="#2a2a2a">@toshio_claude_bot</text>
</g>
<!-- TG&#45;&gt;MULMO -->
<g id="edge28" class="edge">
<title>TG&#45;&gt;MULMO</title>
<path fill="none" stroke="#9b8f84" d="M156.38,-498.49C160.4,-496.77 164.3,-494.87 168,-492.78 204.7,-472.08 204.36,-454.42 237,-427.78 251.12,-416.26 267.44,-404.51 281.71,-394.69"/>
<polygon fill="#9b8f84" stroke="#9b8f84" points="154.89,-495.32 146.85,-502.21 157.43,-501.84 154.89,-495.32"/>
<polygon fill="#9b8f84" stroke="#9b8f84" points="283.99,-397.37 290.29,-388.85 280.05,-391.58 283.99,-397.37"/>
<text text-anchor="middle" x="202.5" y="-487.38" font-family="Noto Sans JP" font-size="8.00" fill="#7a6f64">スマホ壁打ち</text>
</g>
<!-- WIKIUI -->
<g id="node23" class="node">
<title>WIKIUI</title>
<path fill="#eef1f5" stroke="#c2cad6" d="M355,-214.78C355,-214.78 283,-214.78 283,-214.78 277,-214.78 271,-208.78 271,-202.78 271,-202.78 271,-190.78 271,-190.78 271,-184.78 277,-178.78 283,-178.78 283,-178.78 355,-178.78 355,-178.78 361,-178.78 367,-184.78 367,-190.78 367,-190.78 367,-202.78 367,-202.78 367,-208.78 361,-214.78 355,-214.78"/>
<text text-anchor="middle" x="319" y="-194.28" font-family="Noto Sans JP" font-size="10.00" fill="#2a2a2a">Wiki UI（/wiki）</text>
</g>
<!-- WIKIUI&#45;&gt;WIKI -->
<g id="edge29" class="edge">
<title>WIKIUI&#45;&gt;WIKI</title>
<path fill="none" stroke="#9b8f84" d="M377.08,-209.98C408.27,-217.2 447.5,-226.27 482.15,-234.28"/>
<polygon fill="#9b8f84" stroke="#9b8f84" points="377.77,-206.55 367.24,-207.71 376.19,-213.37 377.77,-206.55"/>
<polygon fill="#9b8f84" stroke="#9b8f84" points="481.74,-237.77 492.27,-236.62 483.31,-230.95 481.74,-237.77"/>
</g>
</g>
</svg>
